<svg width="414" height="52" viewBox="0 0 414 52" fill="none" xmlns="http://www.w3.org/2000/svg">
<path d="M187.941 15H186.779V10.29H181.529V15H180.367V5.00586H181.529V9.26465H186.779V5.00586H187.941V15ZM193.321 7.38477C194.215 7.38477 194.878 7.58529 195.311 7.98633C195.743 8.38737 195.96 9.02767 195.96 9.90723V15H195.133L194.914 13.8926H194.859C194.65 14.166 194.431 14.3962 194.203 14.583C193.975 14.7653 193.711 14.9043 193.41 15C193.114 15.0911 192.749 15.1367 192.316 15.1367C191.861 15.1367 191.455 15.057 191.1 14.8975C190.749 14.738 190.471 14.4964 190.266 14.1729C190.065 13.8493 189.965 13.4391 189.965 12.9424C189.965 12.195 190.261 11.6208 190.854 11.2197C191.446 10.8187 192.348 10.5999 193.561 10.5635L194.853 10.5088V10.0508C194.853 9.40365 194.714 8.9502 194.436 8.69043C194.158 8.43066 193.766 8.30078 193.26 8.30078C192.868 8.30078 192.494 8.35775 192.139 8.47168C191.783 8.58561 191.446 8.72005 191.127 8.875L190.778 8.01367C191.116 7.84049 191.503 7.69238 191.94 7.56934C192.378 7.44629 192.838 7.38477 193.321 7.38477ZM194.839 11.3086L193.697 11.3564C192.763 11.3929 192.104 11.5456 191.722 11.8145C191.339 12.0833 191.147 12.4639 191.147 12.9561C191.147 13.3844 191.277 13.7012 191.537 13.9062C191.797 14.1113 192.141 14.2139 192.569 14.2139C193.235 14.2139 193.779 14.0293 194.203 13.6602C194.627 13.291 194.839 12.7373 194.839 11.999V11.3086ZM208.347 7.50781V15H198.298V7.50781H199.433V14.0361H202.748V7.50781H203.89V14.0361H207.212V7.50781H208.347ZM214.273 7.37109C215.208 7.37109 215.953 7.69238 216.509 8.33496C217.065 8.97754 217.343 9.94368 217.343 11.2334C217.343 12.0856 217.215 12.8011 216.96 13.3799C216.705 13.9587 216.345 14.3962 215.88 14.6924C215.42 14.9886 214.875 15.1367 214.246 15.1367C213.85 15.1367 213.501 15.0843 213.2 14.9795C212.899 14.8747 212.642 14.7334 212.428 14.5557C212.214 14.3779 212.036 14.1842 211.895 13.9746H211.812C211.826 14.1523 211.842 14.3665 211.86 14.6172C211.883 14.8678 211.895 15.0866 211.895 15.2734V18.3496H210.753V7.50781H211.689L211.84 8.61523H211.895C212.04 8.38737 212.218 8.18001 212.428 7.99316C212.637 7.80176 212.893 7.65137 213.193 7.54199C213.499 7.42806 213.859 7.37109 214.273 7.37109ZM214.075 8.32812C213.556 8.32812 213.136 8.42839 212.817 8.62891C212.503 8.82943 212.273 9.13021 212.127 9.53125C211.981 9.92773 211.904 10.4268 211.895 11.0283V11.2471C211.895 11.8805 211.963 12.416 212.1 12.8535C212.241 13.291 212.471 13.6237 212.79 13.8516C213.114 14.0794 213.547 14.1934 214.089 14.1934C214.554 14.1934 214.941 14.068 215.251 13.8174C215.561 13.5667 215.791 13.2181 215.941 12.7715C216.096 12.3203 216.174 11.8031 216.174 11.2197C216.174 10.3356 216.001 9.63379 215.654 9.11426C215.312 8.59017 214.786 8.32812 214.075 8.32812ZM220.405 7.50781V12.2178C220.405 12.3089 220.403 12.4274 220.398 12.5732C220.394 12.7145 220.387 12.8672 220.378 13.0312C220.369 13.1908 220.36 13.3457 220.351 13.4961C220.346 13.6419 220.339 13.7627 220.33 13.8584L224.418 7.50781H225.812V15H224.753V10.4062C224.753 10.2604 224.755 10.0736 224.76 9.8457C224.764 9.61784 224.771 9.39453 224.78 9.17578C224.789 8.95247 224.796 8.7793 224.801 8.65625L220.727 15H219.325V7.50781H220.405ZM231.11 7.37109C231.748 7.37109 232.295 7.51237 232.751 7.79492C233.207 8.07747 233.555 8.47396 233.797 8.98438C234.038 9.49023 234.159 10.0827 234.159 10.7617V11.4658H228.984C228.998 12.3454 229.217 13.0153 229.641 13.4756C230.064 13.9359 230.661 14.166 231.432 14.166C231.906 14.166 232.325 14.1227 232.689 14.0361C233.054 13.9495 233.432 13.8219 233.824 13.6533V14.6514C233.446 14.82 233.07 14.943 232.696 15.0205C232.327 15.098 231.89 15.1367 231.384 15.1367C230.664 15.1367 230.035 14.9909 229.497 14.6992C228.964 14.403 228.549 13.9701 228.253 13.4004C227.957 12.8307 227.809 12.1335 227.809 11.3086C227.809 10.502 227.943 9.80469 228.212 9.2168C228.485 8.62435 228.868 8.16862 229.36 7.84961C229.857 7.5306 230.44 7.37109 231.11 7.37109ZM231.097 8.30078C230.491 8.30078 230.007 8.49902 229.647 8.89551C229.287 9.29199 229.073 9.8457 229.005 10.5566H232.97C232.965 10.11 232.895 9.7181 232.758 9.38086C232.626 9.03906 232.423 8.77474 232.149 8.58789C231.876 8.39648 231.525 8.30078 231.097 8.30078ZM229.08 5.4707C229.08 5.24284 229.139 5.0765 229.258 4.97168C229.376 4.86686 229.522 4.81445 229.695 4.81445C229.873 4.81445 230.021 4.86686 230.14 4.97168C230.263 5.0765 230.324 5.24284 230.324 5.4707C230.324 5.69401 230.263 5.86263 230.14 5.97656C230.021 6.08594 229.873 6.14062 229.695 6.14062C229.522 6.14062 229.376 6.08594 229.258 5.97656C229.139 5.86263 229.08 5.69401 229.08 5.4707ZM231.705 5.4707C231.705 5.24284 231.764 5.0765 231.883 4.97168C232.001 4.86686 232.145 4.81445 232.313 4.81445C232.487 4.81445 232.635 4.86686 232.758 4.97168C232.881 5.0765 232.942 5.24284 232.942 5.4707C232.942 5.69401 232.881 5.86263 232.758 5.97656C232.635 6.08594 232.487 6.14062 232.313 6.14062C232.145 6.14062 232.001 6.08594 231.883 5.97656C231.764 5.86263 231.705 5.69401 231.705 5.4707ZM241.193 8.47168H238.726V15H237.604V8.47168H235.171V7.50781H241.193V8.47168Z" fill="#AAAAAA"/>
<path d="M195.884 33.1504L192.526 46H190.224L188.079 38.3008C188.026 38.1133 187.968 37.8906 187.903 37.6328C187.839 37.375 187.774 37.1113 187.71 36.8418C187.651 36.5723 187.599 36.3262 187.552 36.1035C187.511 35.875 187.481 35.6992 187.464 35.5762C187.452 35.6992 187.426 35.8721 187.385 36.0947C187.344 36.3174 187.294 36.5635 187.235 36.833C187.183 37.0967 187.124 37.3604 187.06 37.624C186.995 37.8818 186.937 38.1104 186.884 38.3096L184.774 46H182.48L179.132 33.1504H181.25L183.104 40.6826C183.163 40.9229 183.222 41.1836 183.28 41.4648C183.345 41.7402 183.403 42.0186 183.456 42.2998C183.515 42.5811 183.567 42.8564 183.614 43.126C183.661 43.3896 183.699 43.6299 183.729 43.8467C183.758 43.624 183.796 43.3779 183.843 43.1084C183.89 42.833 183.939 42.5547 183.992 42.2734C184.051 41.9863 184.109 41.7109 184.168 41.4473C184.232 41.1836 184.297 40.9463 184.361 40.7354L186.453 33.1504H188.51L190.646 40.7617C190.71 40.9785 190.771 41.2217 190.83 41.4912C190.895 41.7607 190.956 42.0361 191.015 42.3174C191.073 42.5986 191.126 42.8711 191.173 43.1348C191.22 43.3984 191.258 43.6357 191.287 43.8467C191.328 43.5596 191.381 43.2314 191.445 42.8623C191.51 42.4932 191.583 42.1182 191.665 41.7373C191.747 41.3564 191.829 41.0049 191.911 40.6826L193.757 33.1504H195.884ZM201.368 36.0859C202.235 36.0859 202.979 36.2646 203.601 36.6221C204.222 36.9795 204.699 37.4863 205.033 38.1426C205.367 38.7988 205.534 39.584 205.534 40.498V41.6055H199.039C199.062 42.5488 199.314 43.2754 199.795 43.7852C200.281 44.2949 200.961 44.5498 201.834 44.5498C202.455 44.5498 203.012 44.4912 203.504 44.374C204.002 44.251 204.515 44.0723 205.042 43.8379V45.5166C204.556 45.7451 204.061 45.9121 203.557 46.0176C203.053 46.123 202.449 46.1758 201.746 46.1758C200.791 46.1758 199.95 45.9912 199.224 45.6221C198.503 45.2471 197.938 44.6904 197.527 43.9521C197.123 43.2139 196.921 42.2969 196.921 41.2012C196.921 40.1113 197.105 39.1855 197.475 38.4238C197.844 37.6621 198.362 37.082 199.03 36.6836C199.698 36.2852 200.478 36.0859 201.368 36.0859ZM201.368 37.6416C200.718 37.6416 200.19 37.8525 199.786 38.2744C199.388 38.6963 199.153 39.3145 199.083 40.1289H203.513C203.507 39.6426 203.425 39.2119 203.267 38.8369C203.114 38.4619 202.88 38.1689 202.563 37.958C202.253 37.7471 201.854 37.6416 201.368 37.6416ZM212.855 36.0859C214.01 36.0859 214.936 36.5078 215.633 37.3516C216.336 38.1953 216.688 39.4492 216.688 41.1133C216.688 42.2148 216.523 43.1436 216.195 43.8994C215.873 44.6494 215.419 45.2178 214.833 45.6045C214.253 45.9854 213.576 46.1758 212.803 46.1758C212.311 46.1758 211.883 46.1113 211.52 45.9824C211.156 45.8535 210.846 45.6865 210.588 45.4814C210.33 45.2705 210.113 45.042 209.938 44.7959H209.814C209.844 45.0303 209.87 45.291 209.894 45.5781C209.923 45.8594 209.938 46.1172 209.938 46.3516V50.3154H207.863V36.2705H209.551L209.841 37.6152H209.938C210.119 37.3398 210.339 37.085 210.597 36.8506C210.86 36.6162 211.177 36.4316 211.546 36.2969C211.921 36.1562 212.357 36.0859 212.855 36.0859ZM212.302 37.7734C211.733 37.7734 211.276 37.8877 210.931 38.1162C210.591 38.3389 210.342 38.6758 210.184 39.127C210.031 39.5781 209.949 40.1436 209.938 40.8232V41.1133C209.938 41.834 210.011 42.4463 210.157 42.9502C210.31 43.4482 210.559 43.8291 210.904 44.0928C211.256 44.3506 211.73 44.4795 212.328 44.4795C212.832 44.4795 213.248 44.3418 213.576 44.0664C213.91 43.791 214.159 43.3984 214.323 42.8887C214.487 42.3789 214.569 41.7783 214.569 41.0869C214.569 40.0381 214.382 39.2236 214.007 38.6436C213.638 38.0635 213.069 37.7734 212.302 37.7734ZM224.009 36.0859C224.173 36.0859 224.352 36.0947 224.545 36.1123C224.738 36.1299 224.905 36.1533 225.046 36.1826L224.853 38.1162C224.729 38.0811 224.577 38.0547 224.396 38.0371C224.22 38.0195 224.062 38.0107 223.921 38.0107C223.552 38.0107 223.2 38.0723 222.866 38.1953C222.532 38.3125 222.236 38.4941 221.979 38.7402C221.721 38.9805 221.519 39.2822 221.372 39.6455C221.226 40.0088 221.152 40.4307 221.152 40.9111V46H219.078V36.2705H220.695L220.977 37.9844H221.073C221.267 37.6387 221.507 37.3223 221.794 37.0352C222.081 36.748 222.409 36.5195 222.778 36.3496C223.153 36.1738 223.563 36.0859 224.009 36.0859ZM230.724 36.0859C231.591 36.0859 232.335 36.2646 232.956 36.6221C233.577 36.9795 234.055 37.4863 234.389 38.1426C234.723 38.7988 234.89 39.584 234.89 40.498V41.6055H228.395C228.418 42.5488 228.67 43.2754 229.15 43.7852C229.637 44.2949 230.316 44.5498 231.189 44.5498C231.811 44.5498 232.367 44.4912 232.859 44.374C233.357 44.251 233.87 44.0723 234.397 43.8379V45.5166C233.911 45.7451 233.416 45.9121 232.912 46.0176C232.408 46.123 231.805 46.1758 231.102 46.1758C230.146 46.1758 229.306 45.9912 228.579 45.6221C227.858 45.2471 227.293 44.6904 226.883 43.9521C226.479 43.2139 226.276 42.2969 226.276 41.2012C226.276 40.1113 226.461 39.1855 226.83 38.4238C227.199 37.6621 227.718 37.082 228.386 36.6836C229.054 36.2852 229.833 36.0859 230.724 36.0859ZM230.724 37.6416C230.073 37.6416 229.546 37.8525 229.142 38.2744C228.743 38.6963 228.509 39.3145 228.438 40.1289H232.868C232.862 39.6426 232.78 39.2119 232.622 38.8369C232.47 38.4619 232.235 38.1689 231.919 37.958C231.608 37.7471 231.21 37.6416 230.724 37.6416ZM243.758 43.2227C243.758 43.8613 243.603 44.4004 243.292 44.8398C242.981 45.2793 242.527 45.6133 241.93 45.8418C241.338 46.0645 240.611 46.1758 239.75 46.1758C239.07 46.1758 238.484 46.126 237.992 46.0264C237.506 45.9326 237.046 45.7861 236.612 45.5869V43.8027C237.075 44.0195 237.594 44.207 238.168 44.3652C238.748 44.5234 239.296 44.6025 239.812 44.6025C240.491 44.6025 240.98 44.4971 241.279 44.2861C241.578 44.0693 241.728 43.7822 241.728 43.4248C241.728 43.2139 241.666 43.0264 241.543 42.8623C241.426 42.6924 241.203 42.5195 240.875 42.3438C240.553 42.1621 240.078 41.9453 239.451 41.6934C238.836 41.4473 238.317 41.2012 237.896 40.9551C237.474 40.709 237.154 40.4131 236.938 40.0674C236.721 39.7158 236.612 39.2676 236.612 38.7227C236.612 37.8613 236.952 37.208 237.632 36.7627C238.317 36.3115 239.223 36.0859 240.348 36.0859C240.945 36.0859 241.508 36.1475 242.035 36.2705C242.568 36.3877 243.09 36.5605 243.6 36.7891L242.949 38.3447C242.51 38.1514 242.067 37.9932 241.622 37.8701C241.183 37.7412 240.734 37.6768 240.277 37.6768C239.744 37.6768 239.337 37.7588 239.056 37.9229C238.78 38.0869 238.643 38.3213 238.643 38.626C238.643 38.8545 238.71 39.0479 238.845 39.2061C238.979 39.3643 239.211 39.5225 239.539 39.6807C239.873 39.8389 240.336 40.0352 240.928 40.2695C241.508 40.4922 242.009 40.7266 242.431 40.9727C242.858 41.2129 243.187 41.5088 243.415 41.8604C243.644 42.2119 243.758 42.666 243.758 43.2227ZM252.529 43.2227C252.529 43.8613 252.374 44.4004 252.063 44.8398C251.753 45.2793 251.299 45.6133 250.701 45.8418C250.109 46.0645 249.383 46.1758 248.521 46.1758C247.842 46.1758 247.256 46.126 246.764 46.0264C246.277 45.9326 245.817 45.7861 245.384 45.5869V43.8027C245.847 44.0195 246.365 44.207 246.939 44.3652C247.52 44.5234 248.067 44.6025 248.583 44.6025C249.263 44.6025 249.752 44.4971 250.051 44.2861C250.35 44.0693 250.499 43.7822 250.499 43.4248C250.499 43.2139 250.438 43.0264 250.314 42.8623C250.197 42.6924 249.975 42.5195 249.646 42.3438C249.324 42.1621 248.85 41.9453 248.223 41.6934C247.607 41.4473 247.089 41.2012 246.667 40.9551C246.245 40.709 245.926 40.4131 245.709 40.0674C245.492 39.7158 245.384 39.2676 245.384 38.7227C245.384 37.8613 245.724 37.208 246.403 36.7627C247.089 36.3115 247.994 36.0859 249.119 36.0859C249.717 36.0859 250.279 36.1475 250.807 36.2705C251.34 36.3877 251.861 36.5605 252.371 36.7891L251.721 38.3447C251.281 38.1514 250.839 37.9932 250.394 37.8701C249.954 37.7412 249.506 37.6768 249.049 37.6768C248.516 37.6768 248.108 37.7588 247.827 37.9229C247.552 38.0869 247.414 38.3213 247.414 38.626C247.414 38.8545 247.481 39.0479 247.616 39.2061C247.751 39.3643 247.982 39.5225 248.311 39.6807C248.645 39.8389 249.107 40.0352 249.699 40.2695C250.279 40.4922 250.78 40.7266 251.202 40.9727C251.63 41.2129 251.958 41.5088 252.187 41.8604C252.415 42.2119 252.529 42.666 252.529 43.2227ZM259.648 46V33.1504H261.758V46H259.648ZM270.011 36.0859C271.106 36.0859 271.959 36.3701 272.568 36.9385C273.184 37.501 273.491 38.4062 273.491 39.6543V46H271.426V40.041C271.426 39.2852 271.271 38.7197 270.96 38.3447C270.649 37.9639 270.169 37.7734 269.519 37.7734C268.575 37.7734 267.919 38.0635 267.55 38.6436C267.187 39.2236 267.005 40.0645 267.005 41.166V46H264.939V36.2705H266.548L266.838 37.5889H266.952C267.163 37.249 267.424 36.9707 267.734 36.7539C268.051 36.5312 268.402 36.3643 268.789 36.2529C269.182 36.1416 269.589 36.0859 270.011 36.0859ZM280.303 46.1758C279.383 46.1758 278.586 45.9971 277.912 45.6396C277.238 45.2822 276.72 44.7344 276.356 43.9961C275.993 43.2578 275.812 42.3203 275.812 41.1836C275.812 40 276.011 39.0332 276.409 38.2832C276.808 37.5332 277.358 36.9795 278.062 36.6221C278.771 36.2646 279.582 36.0859 280.496 36.0859C281.076 36.0859 281.601 36.1445 282.069 36.2617C282.544 36.373 282.945 36.5107 283.273 36.6748L282.658 38.3271C282.301 38.1807 281.935 38.0576 281.56 37.958C281.185 37.8584 280.824 37.8086 280.479 37.8086C279.91 37.8086 279.436 37.9346 279.055 38.1865C278.68 38.4385 278.398 38.8135 278.211 39.3115C278.029 39.8096 277.938 40.4277 277.938 41.166C277.938 41.8809 278.032 42.4844 278.22 42.9766C278.407 43.4629 278.686 43.832 279.055 44.084C279.424 44.3301 279.878 44.4531 280.417 44.4531C280.95 44.4531 281.428 44.3887 281.85 44.2598C282.271 44.1309 282.67 43.9639 283.045 43.7588V45.5518C282.676 45.7627 282.28 45.918 281.858 46.0176C281.437 46.123 280.918 46.1758 280.303 46.1758ZM285.031 44.9102C285.031 44.4297 285.154 44.0928 285.4 43.8994C285.652 43.7002 285.957 43.6006 286.314 43.6006C286.672 43.6006 286.977 43.7002 287.229 43.8994C287.486 44.0928 287.615 44.4297 287.615 44.9102C287.615 45.3789 287.486 45.7188 287.229 45.9297C286.977 46.1348 286.672 46.2373 286.314 46.2373C285.957 46.2373 285.652 46.1348 285.4 45.9297C285.154 45.7188 285.031 45.3789 285.031 44.9102Z" fill="#11142D"/>
<path d="M5.7627 15L2.40625 6.1543H2.35156C2.36979 6.34115 2.38574 6.56901 2.39941 6.83789C2.41309 7.10677 2.42448 7.40072 2.43359 7.71973C2.44271 8.03418 2.44727 8.35547 2.44727 8.68359V15H1.36719V5.00586H3.08984L6.25488 13.3184H6.30273L9.51562 5.00586H11.2246V15H10.0762V8.60156C10.0762 8.30534 10.0807 8.00911 10.0898 7.71289C10.099 7.41211 10.1104 7.12956 10.124 6.86523C10.1377 6.59635 10.1514 6.36393 10.165 6.16797H10.1104L6.71289 15H5.7627ZM12.6055 7.50781H13.8223L15.4766 11.8555C15.5723 12.1107 15.6611 12.3568 15.7432 12.5938C15.8252 12.8262 15.8981 13.0495 15.9619 13.2637C16.0257 13.4779 16.0758 13.6852 16.1123 13.8857H16.1602C16.224 13.6579 16.3151 13.3594 16.4336 12.9902C16.5521 12.6165 16.6797 12.236 16.8164 11.8486L18.3818 7.50781H19.6055L16.3447 16.1006C16.1715 16.5609 15.9688 16.9619 15.7363 17.3037C15.5085 17.6455 15.2305 17.9076 14.9023 18.0898C14.5742 18.2767 14.1777 18.3701 13.7129 18.3701C13.4987 18.3701 13.3096 18.3564 13.1455 18.3291C12.9814 18.3063 12.8402 18.279 12.7217 18.2471V17.3379C12.8219 17.3607 12.9427 17.3812 13.084 17.3994C13.2298 17.4176 13.3802 17.4268 13.5352 17.4268C13.8177 17.4268 14.0615 17.3721 14.2666 17.2627C14.4762 17.1579 14.6562 17.0029 14.8066 16.7979C14.957 16.5928 15.0869 16.349 15.1963 16.0664L15.6064 15.0137L12.6055 7.50781ZM23.6045 7.38477C24.4977 7.38477 25.1608 7.58529 25.5938 7.98633C26.0267 8.38737 26.2432 9.02767 26.2432 9.90723V15H25.416L25.1973 13.8926H25.1426C24.9329 14.166 24.7142 14.3962 24.4863 14.583C24.2585 14.7653 23.9941 14.9043 23.6934 15C23.3971 15.0911 23.0326 15.1367 22.5996 15.1367C22.1439 15.1367 21.7383 15.057 21.3828 14.8975C21.0319 14.738 20.7539 14.4964 20.5488 14.1729C20.3483 13.8493 20.248 13.4391 20.248 12.9424C20.248 12.195 20.5443 11.6208 21.1367 11.2197C21.7292 10.8187 22.6315 10.5999 23.8438 10.5635L25.1357 10.5088V10.0508C25.1357 9.40365 24.9967 8.9502 24.7188 8.69043C24.4408 8.43066 24.0488 8.30078 23.543 8.30078C23.151 8.30078 22.7773 8.35775 22.4219 8.47168C22.0664 8.58561 21.7292 8.72005 21.4102 8.875L21.0615 8.01367C21.3988 7.84049 21.7861 7.69238 22.2236 7.56934C22.6611 7.44629 23.1214 7.38477 23.6045 7.38477ZM25.1221 11.3086L23.9805 11.3564C23.0462 11.3929 22.3877 11.5456 22.0049 11.8145C21.6221 12.0833 21.4307 12.4639 21.4307 12.9561C21.4307 13.3844 21.5605 13.7012 21.8203 13.9062C22.0801 14.1113 22.4242 14.2139 22.8525 14.2139C23.5179 14.2139 24.0625 14.0293 24.4863 13.6602C24.9102 13.291 25.1221 12.7373 25.1221 11.999V11.3086ZM34.2002 15H33.0449V8.45801H30.7686C30.6774 9.63835 30.5612 10.6501 30.4199 11.4932C30.2832 12.3317 30.11 13.0176 29.9004 13.5508C29.6953 14.0794 29.4447 14.4691 29.1484 14.7197C28.8568 14.9658 28.5081 15.0889 28.1025 15.0889C27.9795 15.0889 27.8633 15.082 27.7539 15.0684C27.6445 15.0547 27.5511 15.0319 27.4736 15V14.1387C27.5329 14.1569 27.5944 14.1706 27.6582 14.1797C27.7266 14.1888 27.7972 14.1934 27.8701 14.1934C28.0752 14.1934 28.262 14.109 28.4307 13.9404C28.6038 13.7673 28.7588 13.5075 28.8955 13.1611C29.0368 12.8148 29.1621 12.3773 29.2715 11.8486C29.3809 11.3154 29.4766 10.6888 29.5586 9.96875C29.6452 9.24414 29.7204 8.42383 29.7842 7.50781H34.2002V15ZM42.2119 15H41.0566V8.45801H38.7803C38.6891 9.63835 38.5729 10.6501 38.4316 11.4932C38.2949 12.3317 38.1217 13.0176 37.9121 13.5508C37.707 14.0794 37.4564 14.4691 37.1602 14.7197C36.8685 14.9658 36.5199 15.0889 36.1143 15.0889C35.9912 15.0889 35.875 15.082 35.7656 15.0684C35.6562 15.0547 35.5628 15.0319 35.4854 15V14.1387C35.5446 14.1569 35.6061 14.1706 35.6699 14.1797C35.7383 14.1888 35.8089 14.1934 35.8818 14.1934C36.0869 14.1934 36.2738 14.109 36.4424 13.9404C36.6156 13.7673 36.7705 13.5075 36.9072 13.1611C37.0485 12.8148 37.1738 12.3773 37.2832 11.8486C37.3926 11.3154 37.4883 10.6888 37.5703 9.96875C37.6569 9.24414 37.7321 8.42383 37.7959 7.50781H42.2119V15ZM45.6846 7.50781V12.2178C45.6846 12.3089 45.6823 12.4274 45.6777 12.5732C45.6732 12.7145 45.6663 12.8672 45.6572 13.0312C45.6481 13.1908 45.639 13.3457 45.6299 13.4961C45.6253 13.6419 45.6185 13.7627 45.6094 13.8584L49.6973 7.50781H51.0918V15H50.0322V10.4062C50.0322 10.2604 50.0345 10.0736 50.0391 9.8457C50.0436 9.61784 50.0505 9.39453 50.0596 9.17578C50.0687 8.95247 50.0755 8.7793 50.0801 8.65625L46.0059 15H44.6045V7.50781H45.6846ZM57.8594 4.36328V7.39844C58.6022 7.46224 59.2493 7.65592 59.8008 7.97949C60.3522 8.2985 60.7806 8.73372 61.0859 9.28516C61.3913 9.83659 61.5439 10.4928 61.5439 11.2539C61.5439 12.0013 61.3958 12.653 61.0996 13.209C60.8079 13.765 60.3864 14.2048 59.835 14.5283C59.2881 14.8519 58.6296 15.0456 57.8594 15.1094V18.3633H56.752V15.1094C56.0091 15.0547 55.362 14.8678 54.8105 14.5488C54.2637 14.2253 53.8376 13.7855 53.5322 13.2295C53.2269 12.6735 53.0742 12.015 53.0742 11.2539C53.0742 10.4928 53.2201 9.83659 53.5117 9.28516C53.8079 8.72917 54.2318 8.29167 54.7832 7.97266C55.3346 7.64909 56.0023 7.45768 56.7861 7.39844V4.36328H57.8594ZM56.7861 8.3418C56.2074 8.39193 55.7311 8.53776 55.3574 8.7793C54.9837 9.02083 54.7057 9.34896 54.5234 9.76367C54.3457 10.1784 54.2568 10.6751 54.2568 11.2539C54.2568 11.8327 54.348 12.3317 54.5303 12.751C54.7126 13.1657 54.9906 13.4938 55.3643 13.7354C55.738 13.9769 56.2119 14.125 56.7861 14.1797V8.3418ZM57.8594 8.35547V14.1797C58.4336 14.1204 58.9053 13.9678 59.2744 13.7217C59.6481 13.4756 59.9238 13.1452 60.1016 12.7305C60.2839 12.3158 60.375 11.8236 60.375 11.2539C60.375 10.388 60.1676 9.71126 59.7529 9.22363C59.3382 8.73145 58.707 8.44206 57.8594 8.35547Z" fill="#AAAAAA"/>
<path d="M11.5049 46H9.07031L5.03613 40.1816L3.79688 41.1924V46H1.69629V33.1504H3.79688V39.2852C4.37109 38.582 4.94238 37.9053 5.51074 37.2549L8.98242 33.1504H11.373C9.12891 35.7871 7.52051 37.665 6.54785 38.7842L11.5049 46ZM17.2354 46.1758C15.7236 46.1758 14.54 45.7363 13.6846 44.8574C12.835 43.9727 12.4102 42.7568 12.4102 41.21C12.4102 39.6221 12.8057 38.374 13.5967 37.4658C14.3877 36.5576 15.4746 36.1035 16.8574 36.1035C18.1406 36.1035 19.1543 36.4932 19.8984 37.2725C20.6426 38.0518 21.0146 39.124 21.0146 40.4893V41.6055H14.5371C14.5664 42.5488 14.8213 43.2754 15.3018 43.7852C15.7822 44.2891 16.459 44.541 17.332 44.541C17.9062 44.541 18.4395 44.4883 18.9316 44.3828C19.4297 44.2715 19.9629 44.0898 20.5312 43.8379V45.5166C20.0273 45.7568 19.5176 45.9268 19.002 46.0264C18.4863 46.126 17.8975 46.1758 17.2354 46.1758ZM16.8574 37.668C16.2012 37.668 15.6738 37.876 15.2754 38.292C14.8828 38.708 14.6484 39.3145 14.5723 40.1113H18.9844C18.9727 39.3086 18.7793 38.7021 18.4043 38.292C18.0293 37.876 17.5137 37.668 16.8574 37.668ZM25.5762 46L21.8848 36.2793H24.0645L26.042 41.9307C26.3818 42.8799 26.5869 43.6475 26.6572 44.2334H26.7275C26.7803 43.8115 26.9854 43.0439 27.3428 41.9307L29.3203 36.2793H31.5176L27.8086 46H25.5762ZM35.0596 46H32.9941V36.2793H35.0596V46ZM32.8711 33.7041C32.8711 33.335 32.9707 33.0508 33.1699 32.8516C33.375 32.6523 33.665 32.5527 34.04 32.5527C34.4033 32.5527 34.6846 32.6523 34.8838 32.8516C35.0889 33.0508 35.1914 33.335 35.1914 33.7041C35.1914 34.0557 35.0889 34.334 34.8838 34.5391C34.6846 34.7383 34.4033 34.8379 34.04 34.8379C33.665 34.8379 33.375 34.7383 33.1699 34.5391C32.9707 34.334 32.8711 34.0557 32.8711 33.7041ZM46.5732 46H44.499V40.0234C44.499 39.2734 44.3467 38.7139 44.042 38.3447C43.7432 37.9756 43.2656 37.791 42.6094 37.791C41.7363 37.791 41.0977 38.0488 40.6934 38.5645C40.2891 39.0801 40.0869 39.9443 40.0869 41.1572V46H38.0215V36.2793H39.6387L39.9287 37.5537H40.0342C40.3271 37.0908 40.7432 36.7334 41.2822 36.4814C41.8213 36.2295 42.4189 36.1035 43.0752 36.1035C45.4072 36.1035 46.5732 37.29 46.5732 39.6631V46ZM61.752 42.5107C61.752 43.6533 61.3389 44.5498 60.5127 45.2002C59.6865 45.8506 58.5469 46.1758 57.0938 46.1758C55.6406 46.1758 54.4512 45.9502 53.5254 45.499V43.5127C54.1113 43.7881 54.7324 44.0049 55.3887 44.1631C56.0508 44.3213 56.666 44.4004 57.2344 44.4004C58.0664 44.4004 58.6787 44.2422 59.0713 43.9258C59.4697 43.6094 59.6689 43.1846 59.6689 42.6514C59.6689 42.1709 59.4873 41.7637 59.124 41.4297C58.7607 41.0957 58.0107 40.7002 56.874 40.2432C55.7021 39.7686 54.876 39.2266 54.3955 38.6172C53.915 38.0078 53.6748 37.2754 53.6748 36.4199C53.6748 35.3477 54.0557 34.5039 54.8174 33.8887C55.5791 33.2734 56.6016 32.9658 57.8848 32.9658C59.1152 32.9658 60.3398 33.2354 61.5586 33.7744L60.8906 35.4883C59.748 35.0078 58.7285 34.7676 57.832 34.7676C57.1523 34.7676 56.6367 34.917 56.2852 35.2158C55.9336 35.5088 55.7578 35.8984 55.7578 36.3848C55.7578 36.7188 55.8281 37.0059 55.9688 37.2461C56.1094 37.4805 56.3408 37.7031 56.6631 37.9141C56.9854 38.125 57.5654 38.4033 58.4033 38.749C59.3467 39.1416 60.0381 39.5078 60.4775 39.8477C60.917 40.1875 61.2393 40.5713 61.4443 40.999C61.6494 41.4268 61.752 41.9307 61.752 42.5107ZM72.2109 46H70.1367V40.0059C70.1367 39.2617 69.9961 38.708 69.7148 38.3447C69.4336 37.9756 68.9941 37.791 68.3965 37.791C67.5996 37.791 67.0137 38.0518 66.6387 38.5732C66.2695 39.0889 66.085 39.9502 66.085 41.1572V46H64.0195V36.2793H65.6367L65.9268 37.5537H66.0322C66.3018 37.0908 66.6914 36.7334 67.2012 36.4814C67.7168 36.2295 68.2822 36.1035 68.8975 36.1035C70.3916 36.1035 71.3818 36.6133 71.8682 37.6328H72.0088C72.2959 37.1523 72.7002 36.7773 73.2217 36.5078C73.7432 36.2383 74.3408 36.1035 75.0146 36.1035C76.1748 36.1035 77.0186 36.3965 77.5459 36.9824C78.0791 37.5684 78.3457 38.4619 78.3457 39.6631V46H76.2803V40.0059C76.2803 39.2617 76.1367 38.708 75.8496 38.3447C75.5684 37.9756 75.1289 37.791 74.5312 37.791C73.7285 37.791 73.1396 38.043 72.7646 38.5469C72.3955 39.0449 72.2109 39.8125 72.2109 40.8496V46ZM83.2939 46H81.2285V36.2793H83.2939V46ZM81.1055 33.7041C81.1055 33.335 81.2051 33.0508 81.4043 32.8516C81.6094 32.6523 81.8994 32.5527 82.2744 32.5527C82.6377 32.5527 82.9189 32.6523 83.1182 32.8516C83.3232 33.0508 83.4258 33.335 83.4258 33.7041C83.4258 34.0557 83.3232 34.334 83.1182 34.5391C82.9189 34.7383 82.6377 34.8379 82.2744 34.8379C81.8994 34.8379 81.6094 34.7383 81.4043 34.5391C81.2051 34.334 81.1055 34.0557 81.1055 33.7041ZM88.3213 46H86.2559V32.3242H88.3213V46ZM95.5283 46.1758C94.0166 46.1758 92.833 45.7363 91.9775 44.8574C91.1279 43.9727 90.7031 42.7568 90.7031 41.21C90.7031 39.6221 91.0986 38.374 91.8896 37.4658C92.6807 36.5576 93.7676 36.1035 95.1504 36.1035C96.4336 36.1035 97.4473 36.4932 98.1914 37.2725C98.9355 38.0518 99.3076 39.124 99.3076 40.4893V41.6055H92.8301C92.8594 42.5488 93.1143 43.2754 93.5947 43.7852C94.0752 44.2891 94.752 44.541 95.625 44.541C96.1992 44.541 96.7324 44.4883 97.2246 44.3828C97.7227 44.2715 98.2559 44.0898 98.8242 43.8379V45.5166C98.3203 45.7568 97.8105 45.9268 97.2949 46.0264C96.7793 46.126 96.1904 46.1758 95.5283 46.1758ZM95.1504 37.668C94.4941 37.668 93.9668 37.876 93.5684 38.292C93.1758 38.708 92.9414 39.3145 92.8652 40.1113H97.2773C97.2656 39.3086 97.0723 38.7021 96.6973 38.292C96.3223 37.876 95.8066 37.668 95.1504 37.668ZM100.178 36.2793H102.428L104.405 41.79C104.704 42.5752 104.903 43.3135 105.003 44.0049H105.073C105.126 43.6826 105.223 43.293 105.363 42.8359C105.504 42.373 106.248 40.1875 107.596 36.2793H109.828L105.671 47.292C104.915 49.3135 103.655 50.3242 101.892 50.3242C101.435 50.3242 100.989 50.2744 100.556 50.1748V48.54C100.866 48.6104 101.221 48.6455 101.619 48.6455C102.615 48.6455 103.315 48.0684 103.72 46.9141L104.08 46L100.178 36.2793Z" fill="#11142D"/>
<path d="M373.381 5.00586H374.468V10.7822C374.468 11.001 374.465 11.2402 374.461 11.5C374.456 11.7552 374.45 12.0059 374.44 12.252C374.431 12.498 374.42 12.7214 374.406 12.9219C374.397 13.1224 374.388 13.2773 374.379 13.3867H374.434L379.998 5.00586H381.276V15H380.189V9.29199C380.189 9.05046 380.194 8.79525 380.203 8.52637C380.212 8.25293 380.221 7.98861 380.23 7.7334C380.244 7.47819 380.258 7.25033 380.271 7.0498C380.285 6.84473 380.294 6.6875 380.299 6.57812H380.237L374.666 15H373.381V5.00586ZM380.039 1.91602C379.998 2.3763 379.882 2.76139 379.69 3.07129C379.504 3.38118 379.228 3.61589 378.863 3.77539C378.499 3.93034 378.032 4.00781 377.462 4.00781C376.874 4.00781 376.4 3.93262 376.04 3.78223C375.685 3.62728 375.42 3.39486 375.247 3.08496C375.078 2.77507 374.978 2.38542 374.946 1.91602H376.013C376.063 2.41732 376.197 2.75911 376.416 2.94141C376.635 3.1237 376.99 3.21484 377.482 3.21484C377.92 3.21484 378.264 3.11914 378.515 2.92773C378.765 2.73633 378.916 2.39909 378.966 1.91602H380.039ZM384.913 7.50781V12.2178C384.913 12.3089 384.911 12.4274 384.906 12.5732C384.902 12.7145 384.895 12.8672 384.886 13.0312C384.877 13.1908 384.868 13.3457 384.858 13.4961C384.854 13.6419 384.847 13.7627 384.838 13.8584L388.926 7.50781H390.32V15H389.261V10.4062C389.261 10.2604 389.263 10.0736 389.268 9.8457C389.272 9.61784 389.279 9.39453 389.288 9.17578C389.297 8.95247 389.304 8.7793 389.309 8.65625L385.234 15H383.833V7.50781H384.913ZM398.353 15H397.197V8.45801H394.921C394.83 9.63835 394.714 10.6501 394.572 11.4932C394.436 12.3317 394.262 13.0176 394.053 13.5508C393.848 14.0794 393.597 14.4691 393.301 14.7197C393.009 14.9658 392.66 15.0889 392.255 15.0889C392.132 15.0889 392.016 15.082 391.906 15.0684C391.797 15.0547 391.703 15.0319 391.626 15V14.1387C391.685 14.1569 391.747 14.1706 391.811 14.1797C391.879 14.1888 391.95 14.1934 392.022 14.1934C392.228 14.1934 392.414 14.109 392.583 13.9404C392.756 13.7673 392.911 13.5075 393.048 13.1611C393.189 12.8148 393.314 12.3773 393.424 11.8486C393.533 11.3154 393.629 10.6888 393.711 9.96875C393.798 9.24414 393.873 8.42383 393.937 7.50781H398.353V15Z" fill="#AAAAAA"/>
<path d="M378.882 46H376.808V37.7295C376.808 37.4541 376.811 37.1787 376.816 36.9033C376.822 36.6279 376.828 36.3584 376.834 36.0947C376.846 35.8311 376.86 35.5791 376.878 35.3389C376.755 35.4736 376.603 35.6201 376.421 35.7783C376.245 35.9365 376.058 36.1006 375.858 36.2705L374.382 37.4482L373.345 36.1387L377.159 33.1504H378.882V46ZM391.793 38.626C391.793 39.3877 391.737 40.1348 391.626 40.8672C391.521 41.5996 391.333 42.2852 391.063 42.9238C390.8 43.5625 390.434 44.1279 389.965 44.6201C389.502 45.1064 388.916 45.4873 388.207 45.7627C387.498 46.0381 386.643 46.1758 385.641 46.1758C385.389 46.1758 385.096 46.1611 384.762 46.1318C384.434 46.1084 384.164 46.0732 383.953 46.0264V44.3037C384.176 44.3682 384.425 44.4209 384.7 44.4619C384.981 44.4971 385.26 44.5146 385.535 44.5146C386.619 44.5146 387.463 44.3125 388.066 43.9082C388.676 43.5039 389.106 42.9473 389.358 42.2383C389.616 41.5293 389.763 40.7236 389.798 39.8213H389.692C389.522 40.1025 389.309 40.3604 389.051 40.5947C388.793 40.8232 388.474 41.0078 388.093 41.1484C387.712 41.2832 387.249 41.3506 386.704 41.3506C385.966 41.3506 385.321 41.1953 384.771 40.8848C384.226 40.5742 383.801 40.123 383.496 39.5312C383.197 38.9336 383.048 38.2158 383.048 37.3779C383.048 36.4697 383.221 35.6875 383.566 35.0312C383.912 34.375 384.401 33.8711 385.034 33.5195C385.667 33.1621 386.411 32.9834 387.267 32.9834C387.911 32.9834 388.506 33.1006 389.051 33.335C389.602 33.5635 390.082 33.915 390.492 34.3896C390.902 34.8584 391.222 35.4473 391.45 36.1562C391.679 36.8594 391.793 37.6826 391.793 38.626ZM387.293 34.6885C386.643 34.6885 386.112 34.9082 385.702 35.3477C385.292 35.7812 385.087 36.4492 385.087 37.3516C385.087 38.084 385.263 38.6641 385.614 39.0918C385.966 39.5195 386.505 39.7334 387.231 39.7334C387.735 39.7334 388.169 39.6309 388.532 39.4258C388.901 39.2148 389.186 38.9482 389.385 38.626C389.59 38.3037 389.692 37.9756 389.692 37.6416C389.692 37.2959 389.643 36.9502 389.543 36.6045C389.449 36.2588 389.303 35.9424 389.104 35.6553C388.904 35.3682 388.652 35.1367 388.348 34.9609C388.049 34.7793 387.697 34.6885 387.293 34.6885ZM402.094 38.626C402.094 39.3877 402.038 40.1348 401.927 40.8672C401.821 41.5996 401.634 42.2852 401.364 42.9238C401.101 43.5625 400.734 44.1279 400.266 44.6201C399.803 45.1064 399.217 45.4873 398.508 45.7627C397.799 46.0381 396.943 46.1758 395.941 46.1758C395.689 46.1758 395.396 46.1611 395.062 46.1318C394.734 46.1084 394.465 46.0732 394.254 46.0264V44.3037C394.477 44.3682 394.726 44.4209 395.001 44.4619C395.282 44.4971 395.561 44.5146 395.836 44.5146C396.92 44.5146 397.764 44.3125 398.367 43.9082C398.977 43.5039 399.407 42.9473 399.659 42.2383C399.917 41.5293 400.063 40.7236 400.099 39.8213H399.993C399.823 40.1025 399.609 40.3604 399.352 40.5947C399.094 40.8232 398.774 41.0078 398.394 41.1484C398.013 41.2832 397.55 41.3506 397.005 41.3506C396.267 41.3506 395.622 41.1953 395.071 40.8848C394.526 40.5742 394.102 40.123 393.797 39.5312C393.498 38.9336 393.349 38.2158 393.349 37.3779C393.349 36.4697 393.521 35.6875 393.867 35.0312C394.213 34.375 394.702 33.8711 395.335 33.5195C395.968 33.1621 396.712 32.9834 397.567 32.9834C398.212 32.9834 398.807 33.1006 399.352 33.335C399.902 33.5635 400.383 33.915 400.793 34.3896C401.203 34.8584 401.522 35.4473 401.751 36.1562C401.979 36.8594 402.094 37.6826 402.094 38.626ZM397.594 34.6885C396.943 34.6885 396.413 34.9082 396.003 35.3477C395.593 35.7812 395.388 36.4492 395.388 37.3516C395.388 38.084 395.563 38.6641 395.915 39.0918C396.267 39.5195 396.806 39.7334 397.532 39.7334C398.036 39.7334 398.47 39.6309 398.833 39.4258C399.202 39.2148 399.486 38.9482 399.686 38.626C399.891 38.3037 399.993 37.9756 399.993 37.6416C399.993 37.2959 399.943 36.9502 399.844 36.6045C399.75 36.2588 399.604 35.9424 399.404 35.6553C399.205 35.3682 398.953 35.1367 398.648 34.9609C398.35 34.7793 397.998 34.6885 397.594 34.6885ZM412.395 38.626C412.395 39.3877 412.339 40.1348 412.228 40.8672C412.122 41.5996 411.935 42.2852 411.665 42.9238C411.401 43.5625 411.035 44.1279 410.566 44.6201C410.104 45.1064 409.518 45.4873 408.809 45.7627C408.1 46.0381 407.244 46.1758 406.242 46.1758C405.99 46.1758 405.697 46.1611 405.363 46.1318C405.035 46.1084 404.766 46.0732 404.555 46.0264V44.3037C404.777 44.3682 405.026 44.4209 405.302 44.4619C405.583 44.4971 405.861 44.5146 406.137 44.5146C407.221 44.5146 408.064 44.3125 408.668 43.9082C409.277 43.5039 409.708 42.9473 409.96 42.2383C410.218 41.5293 410.364 40.7236 410.399 39.8213H410.294C410.124 40.1025 409.91 40.3604 409.652 40.5947C409.395 40.8232 409.075 41.0078 408.694 41.1484C408.313 41.2832 407.851 41.3506 407.306 41.3506C406.567 41.3506 405.923 41.1953 405.372 40.8848C404.827 40.5742 404.402 40.123 404.098 39.5312C403.799 38.9336 403.649 38.2158 403.649 37.3779C403.649 36.4697 403.822 35.6875 404.168 35.0312C404.514 34.375 405.003 33.8711 405.636 33.5195C406.269 33.1621 407.013 32.9834 407.868 32.9834C408.513 32.9834 409.107 33.1006 409.652 33.335C410.203 33.5635 410.684 33.915 411.094 34.3896C411.504 34.8584 411.823 35.4473 412.052 36.1562C412.28 36.8594 412.395 37.6826 412.395 38.626ZM407.895 34.6885C407.244 34.6885 406.714 34.9082 406.304 35.3477C405.894 35.7812 405.688 36.4492 405.688 37.3516C405.688 38.084 405.864 38.6641 406.216 39.0918C406.567 39.5195 407.106 39.7334 407.833 39.7334C408.337 39.7334 408.771 39.6309 409.134 39.4258C409.503 39.2148 409.787 38.9482 409.986 38.626C410.191 38.3037 410.294 37.9756 410.294 37.6416C410.294 37.2959 410.244 36.9502 410.145 36.6045C410.051 36.2588 409.904 35.9424 409.705 35.6553C409.506 35.3682 409.254 35.1367 408.949 34.9609C408.65 34.7793 408.299 34.6885 407.895 34.6885Z" fill="#11142D"/>
</svg>
